<svg width="246" height="253" viewBox="0 0 246 253" version="1.1" xmlns="http://www.w3.org/2000/svg" xmlns:xlink="http://www.w3.org/1999/xlink">
<title>belugas-container</title>
<desc>Created using Figma</desc>
<g id="Canvas" transform="translate(-1718 -5431)">
<g id="belugas-container">
<g id="Vector">
<use xlink:href="#path0_fill" transform="translate(1883.72 5618.08)" fill="#FFFFFF"/>
</g>
<g id="Group">
<g id="Group">
<g id="Vector">
<use xlink:href="#path1_fill" transform="translate(1830.36 5643.77)" fill="#006CF4"/>
</g>
<g id="Vector">
<use xlink:href="#path2_fill" transform="translate(1718 5524.2)" fill="#006CF4"/>
</g>
<g id="Vector">
<use xlink:href="#path3_fill" transform="translate(1900.48 5483.04)" fill="#006CF4"/>
</g>
<g id="Vector">
<use xlink:href="#path4_fill" transform="translate(1922.82 5517.86)" fill="#006CF4"/>
</g>
</g>
<g id="Vector">
<use xlink:href="#path5_fill" transform="translate(1741.74 5618.08)" fill="#FFFFFF"/>
</g>
</g>
<g id="Group">
<g id="Vector">
<use xlink:href="#path6_fill" transform="translate(1746.26 5477.6)" fill="#46D0ED"/>
</g>
</g>
<g id="Group">
<g id="Vector">
<use xlink:href="#path7_fill" transform="translate(1793.51 5477.6)" fill="#46D0ED"/>
</g>
</g>
<g id="Group">
<g id="Vector">
<use xlink:href="#path8_fill" transform="translate(1840.54 5477.6)" fill="#46D0ED"/>
</g>
</g>
<g id="Group">
<g id="Vector">
<use xlink:href="#path9_fill" transform="translate(1769.77 5431)" fill="#46D0ED"/>
</g>
</g>
<g id="Group">
<g id="Vector">
<use xlink:href="#path10_fill" transform="translate(1817.03 5431)" fill="#46D0ED"/>
</g>
</g>
</g>
</g>
<defs>
<path id="path0_fill" d="M 8.13914 16.3666C 12.6343 16.3666 16.2783 12.7028 16.2783 8.1833C 16.2783 3.66379 12.6343 -6.93706e-06 8.13914 -6.93706e-06C 3.64402 -6.93706e-06 3.44982e-06 3.66379 3.44982e-06 8.1833C 3.44982e-06 12.7028 3.64402 16.3666 8.13914 16.3666Z"/>
<path id="path1_fill" d="M 61.4998 13.8661C 57.8824 6.36479 48.1607 0 39.7955 0L 9.95192 0C 1.58669 0 -2.25678 6.13748 1.36062 13.8661L 7.23888 26.3684C 10.8563 33.8697 20.578 40.2345 28.9433 40.2345L 58.7868 40.2345C 67.152 40.2345 70.9955 34.0971 67.3781 26.3684L 61.4998 13.8661Z"/>
<path id="path2_fill" d="M 205.287 3.46853e-06L 26.9044 3.46853e-06C 11.9826 3.46853e-06 8.62455e-07 12.2749 8.62455e-07 27.0503L 8.62455e-07 109.792C 8.62455e-07 124.795 12.2087 136.843 26.9044 136.843L 156.226 136.843C 181.548 136.843 205.739 113.657 205.739 87.0611L 205.287 3.46853e-06Z"/>
<path id="path3_fill" d="M 28.4618 29.5679C 30.0444 24.7943 28.6879 18.2022 25.0705 14.5652L 12.6357 2.06294C 9.24435 -1.34676 4.94869 -0.437513 3.36608 4.10876L 0.653023 11.8374C -0.929589 16.611 0.426935 23.2031 4.04433 26.8401L 16.4791 39.3424C 19.8704 42.7521 24.1661 41.8428 25.7487 37.2965L 28.4618 29.5679Z"/>
<path id="path4_fill" d="M 11.7736 0.656571C 16.5214 -0.934624 23.0779 0.429258 26.6953 4.06628L 39.1301 16.5685C 42.5214 19.9782 41.6171 24.2972 37.0953 25.8884L 29.4084 28.6161C 24.6605 30.2073 18.104 28.8434 14.4866 25.2064L 2.05181 12.7042C -1.3395 9.29448 -0.435149 4.97552 4.0866 3.38433L 11.7736 0.656571Z"/>
<path id="path5_fill" d="M 8.13914 16.3666C 12.6343 16.3666 16.2783 12.7028 16.2783 8.1833C 16.2783 3.66379 12.6343 -6.93706e-06 8.13914 -6.93706e-06C 3.64402 -6.93706e-06 0 3.66379 0 8.1833C 0 12.7028 3.64402 16.3666 8.13914 16.3666Z"/>
<path id="path6_fill" d="M 42.9566 36.3702C 42.9566 40.0072 39.7914 43.1896 36.174 43.1896L 6.78262 43.1896C 3.16522 43.1896 8.62455e-07 40.0072 8.62455e-07 36.3702L 8.62455e-07 6.81941C 8.62455e-07 3.18239 3.16522 3.46853e-06 6.78262 3.46853e-06L 36.174 3.46853e-06C 39.7914 3.46853e-06 42.9566 3.18239 42.9566 6.81941L 42.9566 36.3702Z"/>
<path id="path7_fill" d="M 42.9566 36.3702C 42.9566 40.0072 39.7914 43.1896 36.174 43.1896L 6.78262 43.1896C 3.16522 43.1896 0 40.0072 0 36.3702L 0 6.81941C 0 3.18239 3.16522 3.46853e-06 6.78262 3.46853e-06L 36.174 3.46853e-06C 39.7914 3.46853e-06 42.9566 3.18239 42.9566 6.81941L 42.9566 36.3702Z"/>
<path id="path8_fill" d="M 42.9566 36.3702C 42.9566 40.0072 39.7914 43.1896 36.174 43.1896L 6.78263 43.1896C 3.16523 43.1896 6.89964e-06 40.0072 6.89964e-06 36.3702L 6.89964e-06 6.81941C 6.89964e-06 3.18239 3.16523 3.46853e-06 6.78263 3.46853e-06L 36.174 3.46853e-06C 39.7914 3.46853e-06 42.9566 3.18239 42.9566 6.81941L 42.9566 36.3702Z"/>
<path id="path9_fill" d="M 42.9566 36.3702C 42.9566 40.0072 40.0175 43.1896 36.174 43.1896L 6.78262 43.1896C 2.93913 43.1896 0 40.0072 0 36.3702L 0 6.81941C 0 3.18239 2.93913 -8.67133e-07 6.78262 -8.67133e-07L 36.174 -8.67133e-07C 40.0175 -8.67133e-07 42.9566 3.18239 42.9566 6.81941L 42.9566 36.3702Z"/>
<path id="path10_fill" d="M 42.9566 36.3702C 42.9566 40.0072 39.7914 43.1896 36.174 43.1896L 6.78262 43.1896C 3.16523 43.1896 3.44982e-06 40.0072 3.44982e-06 36.3702L 3.44982e-06 6.81941C 3.44982e-06 3.18239 3.16523 -8.67133e-07 6.78262 -8.67133e-07L 36.174 -8.67133e-07C 39.7914 -8.67133e-07 42.9566 3.18239 42.9566 6.81941L 42.9566 36.3702Z"/>
</defs>
</svg>
