<svg width="274" height="187" viewBox="0 0 274 187" version="1.1" xmlns="http://www.w3.org/2000/svg" xmlns:xlink="http://www.w3.org/1999/xlink">
<title>whales-logo-white</title>
<desc>Created using Figma</desc>
<g id="Canvas" transform="translate(-1377 -4601)">
<g id="whales-logo-white">
<g id="Group">
<g id="Vector">
<use xlink:href="#path0_fill" transform="translate(1402.74 4660.04)" fill="#DCEDFA"/>
</g>
<g id="Vector">
<use xlink:href="#path1_fill" transform="translate(1399.03 4634.23)" fill="#DCEDFA"/>
</g>
<g id="Vector">
<use xlink:href="#path2_fill" transform="translate(1377 4656.05)" fill="#DCEDFA"/>
</g>
<g id="Vector">
<use xlink:href="#path3_fill" transform="translate(1418.39 4735.66)" fill="#DCEDFA"/>
</g>
</g>
<g id="Vector">
<use xlink:href="#path4_fill" transform="translate(1508.26 4675.19)" fill="#FFFFFF"/>
</g>
<g id="Group">
<g id="Vector">
<use xlink:href="#path5_fill" transform="translate(1494.07 4615.44)" fill="#FFFFFF"/>
</g>
<g id="Vector">
<use xlink:href="#path6_fill" transform="translate(1610.37 4701.85)" fill="#FFFFFF"/>
</g>
<g id="Vector">
<use xlink:href="#path7_fill" transform="translate(1624.76 4687.5)" fill="#FFFFFF"/>
</g>
<g id="Vector">
<use xlink:href="#path8_fill" transform="translate(1565.49 4601)" fill="#FFFFFF"/>
</g>
<g id="Vector">
<use xlink:href="#path4_fill" transform="translate(1508.26 4675.19)" fill="#FFFFFF"/>
</g>
</g>
<g id="Group">
<g id="Vector">
<use xlink:href="#path9_fill" transform="translate(1479.66 4768.62)" fill="#FFFFFF"/>
</g>
<g id="Vector">
<use xlink:href="#path10_fill" transform="translate(1506.17 4760.88)" fill="#FFFFFF"/>
</g>
<g id="Vector">
<use xlink:href="#path11_fill" transform="translate(1527.46 4768.03)" fill="#FFFFFF"/>
</g>
<g id="Vector">
<use xlink:href="#path12_fill" transform="translate(1551.33 4760.88)" fill="#FFFFFF"/>
</g>
<g id="Vector">
<use xlink:href="#path13_fill" transform="translate(1571.41 4768.03)" fill="#FFFFFF"/>
</g>
<g id="Vector">
<use xlink:href="#path14_fill" transform="translate(1593.91 4767.95)" fill="#FFFFFF"/>
</g>
</g>
</g>
</g>
<defs>
<path id="path0_fill" d="M 0.28676 -1.0906e-06L 113.987 -1.0906e-06C 123.45 -1.0906e-06 131.192 7.71912 131.192 17.1536L 131.192 69.4721C 131.192 78.9066 123.45 86.6257 113.987 86.6257L 31.5435 86.6257C 15.3416 86.6257 0 72.0451 0 55.1774L 0.28676 -1.0906e-06Z"/>
<path id="path1_fill" d="M 0.414135 18.6553C -0.589523 15.6534 0.270756 11.5079 2.56483 9.22078L 10.4507 1.35871C 12.7448 -0.928433 15.3256 -0.2137 16.4727 2.64523L 18.1932 7.50542C 19.1969 10.5073 18.3366 14.6527 16.0425 16.9399L 8.01326 24.802C 5.71918 27.0891 3.13835 26.3744 1.99131 23.5154L 0.414135 18.6553Z"/>
<path id="path2_fill" d="M 18.7118 0.412883C 15.7008 -0.587743 11.5428 0.269936 9.24871 2.55708L 1.36283 10.4191C -0.931246 12.7063 -0.214348 15.2793 2.65325 16.4229L 7.52815 18.1383C 10.5391 19.1389 14.6971 18.2812 16.9912 15.9941L 24.8771 8.132C 27.1712 5.84486 26.4543 3.27182 23.5867 2.12824L 18.7118 0.412883Z"/>
<path id="path3_fill" d="M 4.568 8.71975C 6.86207 3.85956 13.1708 -4.36239e-06 18.4758 -4.36239e-06L 37.5453 -4.36239e-06C 42.8504 -4.36239e-06 45.4312 4.00251 43.1371 8.71975L 39.4093 16.7248C 37.1152 21.5849 30.8065 25.4445 25.5014 25.4445L 6.43194 25.4445C 1.12689 25.4445 -1.45395 21.442 0.840129 16.7248L 4.568 8.71975Z"/>
<path id="path4_fill" d="M 5.16166 10.2922C 8.01237 10.2922 10.3233 7.98818 10.3233 5.14608C 10.3233 2.30398 8.01237 2.18119e-06 5.16166 2.18119e-06C 2.31095 2.18119e-06 -2.1878e-06 2.30398 -2.1878e-06 5.14608C -2.1878e-06 7.98818 2.31095 10.2922 5.16166 10.2922Z"/>
<path id="path5_fill" d="M 130.906 86.6257L 17.2056 86.6257C 7.7425 86.6257 -4.3756e-06 78.9066 -4.3756e-06 69.4721L -4.3756e-06 17.1536C -4.3756e-06 7.71912 7.7425 5.45298e-07 17.2056 5.45298e-07L 99.6489 5.45298e-07C 115.851 5.45298e-07 131.192 14.5806 131.192 31.4483L 130.906 86.6257Z"/>
<path id="path6_fill" d="M 18.1932 7.50542C 19.1969 10.5073 18.3366 14.6528 16.0425 16.9399L 8.15664 24.802C 5.86256 27.0891 3.28173 26.3744 2.1347 23.5154L 0.414144 18.6553C -0.589514 15.6534 0.270764 11.5079 2.56484 9.22078L 10.4507 1.35871C 12.7448 -0.928434 15.3256 -0.213698 16.4727 2.64523L 18.1932 7.50542Z"/>
<path id="path7_fill" d="M 7.52816 18.1383C 10.5391 19.1389 14.6971 18.2812 16.9912 15.9941L 24.8771 8.132C 27.1712 5.84485 26.4543 3.27182 23.5867 2.12824L 18.7118 0.412883C 15.7008 -0.587743 11.5428 0.269936 9.24871 2.55708L 1.36283 10.4192C -0.931242 12.7063 -0.214352 15.2793 2.65324 16.4229L 7.52816 18.1383Z"/>
<path id="path8_fill" d="M 39.4093 16.7248C 37.1152 21.5849 30.8065 25.4445 25.5014 25.4445L 6.43194 25.4445C 1.12689 25.4445 -1.45394 21.442 0.840138 16.7248L 4.568 8.71975C 6.86207 3.85956 13.1708 0 18.4758 0L 37.5453 0C 42.8504 0 45.4312 4.00251 43.1371 8.71975L 39.4093 16.7248Z"/>
<path id="path9_fill" d="M 18.2915 18.8676L 13.0042 18.8676L 10.7892 1.40033L 10.3605 1.40033L 8.14545 18.8676L 2.85806 18.8676L 2.18052e-06 1.04736e-14L 2.92951 1.04736e-14L 5.35886 17.4672L 5.78756 17.4672L 7.9311 1.04736e-14L 13.2185 1.04736e-14L 15.362 17.4672L 15.7908 17.4672L 18.2201 1.04736e-14L 21.1496 1.04736e-14L 18.2915 18.8676Z"/>
<path id="path10_fill" d="M 2.85805 26.6062L -4.36105e-06 26.6062L -4.36105e-06 0L 2.85805 0L 2.85805 11.1289L 3.28676 11.1289C 3.85837 9.9497 4.64434 8.91788 5.64466 8.25456C 6.64498 7.51755 7.9311 7.22275 9.36013 7.22275C 11.3608 7.22275 12.9327 7.88606 14.2188 9.28638C 15.4335 10.613 16.0766 12.6767 16.0766 15.4036L 16.0766 26.6799L 13.2185 26.6799L 13.2185 16.0669C 13.2185 14.077 12.7898 12.603 11.9324 11.6448C 11.075 10.6867 9.93174 10.1708 8.43126 10.1708C 6.71643 10.1708 5.2874 10.7604 4.35853 12.0133C 3.35822 13.2663 2.85805 14.8877 2.85805 16.9513L 2.85805 26.6062Z"/>
<path id="path11_fill" d="M 14.719 16.288L 14.2903 16.288C 13.7187 17.541 12.8612 18.4991 11.8609 19.0887C 10.7892 19.6783 9.71739 19.9731 8.57416 19.9731C 7.35949 19.9731 6.28772 19.752 5.21595 19.3098C 4.21563 18.8676 3.28676 18.278 2.5008 17.4672C 1.71483 16.6565 1.14323 15.6247 0.643067 14.4455C 0.214358 13.2663 -2.18052e-06 11.8659 -2.18052e-06 10.3182L -2.18052e-06 9.72859C -2.18052e-06 8.18086 0.214358 6.85424 0.643067 5.60131C 1.07178 4.42209 1.71483 3.39027 2.5008 2.57955C 3.28676 1.76883 4.14418 1.10552 5.21595 0.663312C 6.21627 0.221103 7.3595 -2.24919e-06 8.50272 -2.24919e-06C 9.78884 -2.24919e-06 10.8606 0.294807 11.9324 0.884419C 12.9327 1.47403 13.7901 2.35845 14.3617 3.53767L 14.7904 3.53767L 14.7904 0.589612L 17.6485 0.589612L 17.6485 15.551C 17.6485 16.288 18.0057 16.6565 18.6488 16.6565L 19.5777 16.6565L 19.5777 19.3835L 17.6485 19.3835C 16.7911 19.3835 16.148 19.0887 15.5764 18.5728C 15.0762 17.9832 14.7904 17.3198 14.7904 16.4354L 14.7904 16.288L 14.719 16.288ZM 8.78852 17.1724C 9.64594 17.1724 10.4319 17.025 11.1464 16.6565C 11.8609 16.3617 12.504 15.8458 13.0041 15.2562C 13.5043 14.6666 13.933 13.9296 14.2188 13.0452C 14.5046 12.1607 14.6475 11.2763 14.6475 10.2445L 14.6475 9.8023C 14.6475 8.77048 14.5046 7.88605 14.2188 7.00164C 13.933 6.11722 13.5043 5.45391 13.0041 4.79059C 12.504 4.20098 11.8609 3.68508 11.1464 3.39027C 10.4319 3.02176 9.64594 2.87436 8.78852 2.87436C 7.9311 2.87436 7.14514 3.02176 6.43062 3.39027C 5.71611 3.68508 5.07305 4.20098 4.57289 4.79059C 4.07273 5.38021 3.64402 6.11722 3.35821 6.92794C 3.07241 7.81236 2.92951 8.69677 2.92951 9.72859L 2.92951 10.3182C 2.92951 12.4555 3.50112 14.1507 4.57289 15.3299C 5.64466 16.5828 7.07369 17.1724 8.78852 17.1724Z"/>
<path id="path12_fill" d="M 4.36105e-06 23.8793L 6.64497 23.8793L 6.64497 2.72695L 0.21435 2.72695L 0.21435 0L 9.50303 0L 9.50303 23.8793L 16.148 23.8793L 16.148 26.6062L 4.36105e-06 26.6062L 4.36105e-06 23.8793Z"/>
<path id="path13_fill" d="M 2.85805 10.9815C 2.9295 12.8241 3.50112 14.3718 4.57289 15.4773C 5.64466 16.5828 7.07368 17.1724 9.00287 17.1724C 9.86028 17.1724 10.5748 17.0987 11.2179 16.8776C 11.8609 16.6565 12.4325 16.3617 12.8613 16.0669C 13.29 15.6984 13.7187 15.3299 13.933 14.814C 14.2188 14.3718 14.4332 13.8559 14.6475 13.34L 17.3627 14.077C 16.8625 15.8458 15.8622 17.2461 14.5046 18.3517C 13.1471 19.4572 11.2179 19.9731 8.85998 19.9731C 7.57385 19.9731 6.35918 19.752 5.28741 19.2361C 4.21564 18.7939 3.28676 18.1306 2.5008 17.2461C 1.71483 16.3617 1.07178 15.3299 0.643067 14.1507C 0.214359 12.9715 -2.18052e-06 11.6448 -2.18052e-06 10.1708L -2.18052e-06 9.28639C -2.18052e-06 7.95976 0.214352 6.70684 0.714512 5.60131C 1.14322 4.49579 1.78628 3.46397 2.6437 2.65326C 3.42966 1.84254 4.42998 1.17922 5.50175 0.737012C 6.57352 0.294804 7.7882 -2.24919e-06 9.07432 -2.24919e-06C 10.5748 -2.24919e-06 11.8609 0.294807 12.9327 0.884419C 14.0045 1.47403 14.9333 2.13735 15.6479 3.02176C 16.3624 3.83248 16.8625 4.7906 17.2198 5.74871C 17.577 6.70683 17.7199 7.66495 17.7199 8.47567L 17.7199 10.9078L 2.85805 10.9078L 2.85805 10.9815ZM 8.93143 2.87436C 8.14547 2.87436 7.35949 3.02176 6.64498 3.24286C 5.93047 3.53767 5.35885 3.90618 4.78724 4.34839C 4.28708 4.8643 3.85838 5.38021 3.50112 6.04352C 3.14387 6.70684 2.9295 7.37015 2.85805 8.18087L 14.6475 8.18087C 14.5761 7.37015 14.4332 6.63313 14.0759 5.96982C 13.7187 5.30651 13.29 4.7906 12.7898 4.27469C 12.2896 3.83248 11.6466 3.46397 11.0035 3.24286C 10.3605 3.02176 9.64595 2.87436 8.93143 2.87436Z"/>
<path id="path14_fill" d="M 3.78692 5.52761C 3.78692 6.41203 4.14418 7.14904 4.93015 7.59125C 5.64466 8.10716 7.07368 8.40197 9.00286 8.54937C 11.1464 8.69677 12.7898 9.28639 13.8616 10.0971C 15.0048 10.9815 15.5049 12.2344 15.5049 13.9296L 15.5049 14.1507C 15.5049 15.0351 15.3621 15.8458 15.0048 16.5828C 14.6475 17.3198 14.1474 17.9095 13.5043 18.4254C 12.8613 18.9413 12.1467 19.3098 11.2179 19.6046C 10.289 19.8994 9.36012 19.9731 8.28835 19.9731C 6.85932 19.9731 5.64467 19.752 4.64435 19.3835C 3.64403 19.015 2.78661 18.4991 2.07209 17.8358C 1.42903 17.1724 0.857417 16.4354 0.571611 15.6247C 0.214354 14.814 8.72209e-06 14.0033 8.72209e-06 13.1189L 2.71515 12.4555C 2.85806 13.9296 3.35821 15.0351 4.35853 15.9195C 5.28739 16.8039 6.57354 17.2461 8.21692 17.2461C 9.57449 17.2461 10.6462 16.9513 11.5037 16.4354C 12.3611 15.9195 12.7183 15.1088 12.7183 14.1507C 12.7183 13.1189 12.2896 12.3081 11.5037 11.8659C 10.7177 11.4237 9.36012 11.1289 7.57384 10.9815C 5.4303 10.8341 3.85837 10.3182 2.71515 9.43378C 1.57193 8.54937 1.00032 7.29645 1.00032 5.67502L 1.00032 5.45391C 1.00032 4.56949 1.21467 3.75878 1.57193 3.09546C 1.92918 2.43215 2.42935 1.84254 3.07241 1.40033C 3.71547 0.958119 4.42999 0.589611 5.21595 0.368506C 6.00192 0.147402 6.78788 -1.1246e-06 7.71675 -1.1246e-06C 8.93142 -1.1246e-06 10.0032 0.147405 10.8606 0.515913C 11.7895 0.88442 12.504 1.32663 13.1471 1.84254C 13.7901 2.35845 14.2188 3.02176 14.5761 3.75877C 14.9333 4.49579 15.1477 5.1591 15.2191 5.89612L 12.504 6.55943C 12.3611 5.38021 11.9324 4.42209 11.075 3.68507C 10.2176 3.02176 9.14579 2.65325 7.85966 2.65325C 7.3595 2.65325 6.85934 2.72696 6.35918 2.80066C 5.85902 2.94806 5.4303 3.09546 5.07304 3.31657C 4.71578 3.53767 4.42999 3.83248 4.21564 4.20099C 3.85838 4.7169 3.78692 5.0854 3.78692 5.52761Z"/>
</defs>
</svg>
